<!-- Generated by IcoMoon.io -->
<svg version="1.1" xmlns="http://www.w3.org/2000/svg" width="24" height="24" viewBox="0 0 24 24">
<title>menu</title>
<path d="M21.643 10.929h-19.286c-0.643 0-1.071 0.429-1.071 1.071s0.429 1.071 1.071 1.071h19.286c0.643 0 1.071-0.429 1.071-1.071s-0.429-1.071-1.071-1.071z"></path>
<path d="M2.357 6.643h19.286c0.643 0 1.071-0.429 1.071-1.071s-0.429-1.071-1.071-1.071h-19.286c-0.643 0-1.071 0.429-1.071 1.071s0.429 1.071 1.071 1.071z"></path>
<path d="M21.643 17.357h-19.286c-0.643 0-1.071 0.429-1.071 1.071s0.429 1.071 1.071 1.071h19.286c0.643 0 1.071-0.429 1.071-1.071s-0.429-1.071-1.071-1.071z"></path>
</svg>
